:SAMPLES-PER-SECOND 30
:FULLY-SPECIFIED
:DEGREES
293
root  -2.3728 39.0611 -52.1094 -3.12563 -14.8278 -1.15572
RightUpLeg  9.79791 -12.574 -5.61237
RightLeg  18.6095 -16.2384 -6.1787
RightFoot  -16.623 0.680202 17.0931
RightToes  -5.82094e-011 -1.98785e-016 -5.10186e-018
Spine  12.6783 -0.536297 3.80614
Spine1  7.82817 -0.912745 3.31165
HEad  -2.21518 45.0159 -24.9897
LeftShoulder1  0.740923 1.16569 -25.4869
LeftArm  -16.5095 19.1841 -49.1387
LeftForeArm  82.8131 -69.2262 -20.2721
LeftHand  -0.171052 2.60772 6.75645
RightShoulder  2.75432 4.91835 26.7079
RightArm  7.22681 -19.4019 39.0551
RightForeArm  21.2866 28.8162 5.07668
RightHand  -1.38741 6.85549 -13.4212
LeftUpLeg  -14.7449 3.74008 9.34571
LeftLeg  9.14044 -2.46131 0.0040642
LeftFoot  10.1248 1.46177 -8.0345
LeftToes  -8.4584e-011 5.90861e-011 8.40072e-012
294
root  -2.74547 38.9556 -52.7564 -2.60864 -10.6959 -0.997159
RightUpLeg  8.96049 -12.1372 -3.28302
RightLeg  18.8209 -21.4619 -8.0627
RightFoot  -18.0114 0.848598 16.5557
RightToes  -5.82094e-011 -1.98785e-016 -5.10186e-018
Spine  13.101 -0.436334 4.69464
Spine1  8.0372 -0.608604 2.61541
HEad  -3.58488 38.3247 -22.7546
LeftShoulder1  0.812663 0.978115 -25.9899
LeftArm  -16.6787 20.4025 -49.717
LeftForeArm  83.2174 -66.207 -17.0242
LeftHand  -0.160702 2.59004 6.13582
RightShoulder  2.86529 5.34332 26.3706
RightArm  8.74805 -16.4189 38.2845
RightForeArm  21.7397 27.7385 4.80563
RightHand  -1.2136 5.78317 -12.8598
LeftUpLeg  -17.0067 2.79146 8.7681
LeftLeg  8.18762 -3.90654 -0.213244
LeftFoot  13.2837 1.7188 -8.2232
LeftToes  -8.4584e-011 5.90861e-011 8.40072e-012
295
root  -2.99883 39.0114 -53.2497 -2.1837 -8.19573 -0.762176
RightUpLeg  8.08321 -12.491 -2.2504
RightLeg  18.7996 -23.7802 -8.78801
RightFoot  -17.8697 0.809327 16.2263
RightToes  -5.82094e-011 -1.98785e-016 -5.10186e-018
Spine  13.8282 -0.453197 7.33291
Spine1  7.49014 0.563374 -0.633794
HEad  -4.31781 31.4821 -19.8923
LeftShoulder1  0.876471 0.823914 -26.5528
LeftArm  -16.0949 21.9915 -49.1694
LeftForeArm  83.856 -62.629 -14.0803
LeftHand  -0.0665941 3.48149 3.13855
RightShoulder  2.98707 5.74394 26.2786
RightArm  9.21533 -14.1691 37.1001
RightForeArm  21.0584 26.774 4.62731
RightHand  -1.07301 5.1894 -12.0446
LeftUpLeg  -18.1181 2.87691 7.80682
LeftLeg  6.86338 -1.82972 0.145383
LeftFoot  16.5082 2.09462 -8.8545
LeftToes  -8.4584e-011 5.90861e-011 8.40072e-012
296
root  -3.22489 39.1672 -53.6182 -1.77115 -6.87774 -0.194143
RightUpLeg  7.46016 -11.3128 -1.42985
RightLeg  18.0363 -26.6732 -9.34447
RightFoot  -17.0342 0.690396 16.1295
RightToes  -5.82094e-011 -1.98785e-016 -5.10186e-018
Spine  14.7769 0.0820318 8.76084
Spine1  6.78091 1.98732 -3.22744
HEad  -4.5636 24.5733 -16.814
LeftShoulder1  0.763216 1.24858 -27.6978
LeftArm  -15.573 24.1327 -48.2343
LeftForeArm  87.7304 -59.5829 -12.0114
LeftHand  0.055133 2.42784 -2.65307
RightShoulder  2.98947 5.8852 25.7997
RightArm  8.34203 -12.2053 35.9753
RightForeArm  22.2862 26.0106 4.39324
RightHand  -1.1787 6.13362 -12.126
LeftUpLeg  -19.0026 3.98656 6.40863
LeftLeg  6.85834 1.38271 0.363426
LeftFoot  16.2299 2.0951 -8.94903
LeftToes  -8.4584e-011 5.90861e-011 8.40072e-012
297
root  -3.42738 39.3539 -53.8807 -1.16799 -6.73649 1.0665
RightUpLeg  6.36889 -10.267 -1.77605
RightLeg  17.6871 -28.0672 -9.6799
RightFoot  -16.3611 0.589324 15.8803
RightToes  -5.82094e-011 -1.98785e-016 -5.10186e-018
Spine  15.4065 0.931893 9.03909
Spine1  5.97272 3.55076 -6.01947
HEad  -4.83559 19.2515 -13.1549
LeftShoulder1  0.460318 2.1337 -27.4465
LeftArm  -15.5672 27.3626 -48.0886
LeftForeArm  90.4836 -57.6306 -10.8799
LeftHand  0.333991 1.01828 -9.09392
RightShoulder  3.17965 6.51177 25.6955
RightArm  6.5319 -10.6163 34.7591
RightForeArm  21.7104 25.8011 4.37895
RightHand  -1.34723 6.52397 -13.4191
LeftUpLeg  -19.7799 5.38817 4.47075
LeftLeg  7.81465 3.23174 0.460909
LeftFoot  11.5322 1.81774 -9.3077
LeftToes  -8.4584e-011 5.90861e-011 8.40072e-012
298
root  -3.56254 39.5105 -54.0616 -0.904169 -6.47107 2.11402
RightUpLeg  5.95383 -9.80897 -2.30254
RightLeg  17.045 -28.8001 -9.6505
RightFoot  -15.5468 0.456143 15.2423
RightToes  -5.82094e-011 -1.98785e-016 -5.10186e-018
Spine  16.9113 1.49569 9.42269
Spine1  4.35853 4.79403 -8.60328
HEad  -5.25595 14.3335 -9.94176
LeftShoulder1  0.411616 2.25181 -26.6924
LeftArm  -16.873 32.4397 -47.962
LeftForeArm  89.3632 -57.9403 -11.0846
LeftHand  0.61667 0.357551 -14.4172
RightShoulder  3.18945 6.60576 25.4894
RightArm  3.69493 -9.69784 33.8517
RightForeArm  20.0676 26.9711 4.72392
RightHand  -1.32099 5.40141 -14.4071
LeftUpLeg  -20.4803 5.12181 2.99342
LeftLeg  9.90594 3.45628 0.83357
LeftFoot  8.62344 1.4459 -8.50249
LeftToes  -8.4584e-011 5.90861e-011 8.40072e-012
299
root  -3.66882 39.5765 -54.1067 -0.764748 -5.42261 2.6209
RightUpLeg  6.23942 -9.27263 -2.20046
RightLeg  16.1926 -30.3121 -9.77522
RightFoot  -15.0647 0.400108 15.3888
RightToes  -5.82094e-011 -1.98785e-016 -5.10186e-018
Spine  17.1128 1.68693 9.68882
Spine1  4.40705 5.36093 -9.84437
HEad  -6.28436 10.5668 -7.5231
LeftShoulder1  0.263824 2.6859 -26.0306
LeftArm  -18.4231 36.9892 -47.6474
LeftForeArm  86.1148 -58.7072 -11.5968
LeftHand  0.594005 1.01288 -15.9767
RightShoulder  3.12341 6.70285 24.4938
RightArm  0.833069 -8.54732 33.4862
RightForeArm  20.0514 28.8979 5.16778
RightHand  -1.56616 6.05803 -16.1066
LeftUpLeg  -21.2922 3.1698 2.3064
LeftLeg  12.4534 2.09794 0.852947
LeftFoot  7.60116 1.14229 -7.12697
LeftToes  -8.4584e-011 5.90861e-011 8.40072e-012
300
root  -3.75883 39.5685 -54.0476 -0.302322 -4.65216 2.99068
RightUpLeg  6.07493 -8.00996 -1.68434
RightLeg  16.0083 -32.3753 -10.5733
RightFoot  -14.9561 0.396086 15.6891
RightToes  -5.82094e-011 -1.98785e-016 -5.10186e-018
Spine  16.9224 2.16956 9.78983
Spine1  4.35226 5.95611 -10.4477
HEad  -7.53402 7.3921 -5.66493
LeftShoulder1  0.0940017 3.20469 -25.2382
LeftArm  -20.1626 40.7601 -47.3273
LeftForeArm  83.5697 -59.7909 -12.3052
LeftHand  0.813429 -0.517493 -15.8854
RightShoulder  3.068 6.6819 23.9866
RightArm  -1.41547 -7.80255 32.3578
RightForeArm  19.8643 32.2288 5.97402
RightHand  -1.67747 5.87101 -17.4598
LeftUpLeg  -21.9967 2.04881 1.84228
LeftLeg  13.6541 -0.928492 0.067204
LeftFoot  6.4799 1.08429 -7.16191
LeftToes  -8.4584e-011 5.90861e-011 8.40072e-012
301
root  -3.82025 39.5074 -53.8951 0.17721 -3.97542 3.27246
RightUpLeg  5.88803 -7.48193 -1.47421
RightLeg  16.2015 -33.6832 -11.187
RightFoot  -15.2983 0.455317 16.1065
RightToes  -5.82094e-011 -1.98785e-016 -5.10186e-018
Spine  16.5257 2.57983 10.4198
Spine1  4.3589 6.69967 -11.6478
HEad  -8.51762 4.35148 -3.77331
LeftShoulder1  -0.0201407 3.57103 -24.1839
LeftArm  -21.8539 43.395 -46.9559
LeftForeArm  82.3992 -60.9577 -13.0562
LeftHand  1.16495 -2.83912 -16.1561
RightShoulder  3.00325 6.46421 23.9963
RightArm  -3.14058 -6.73458 30.9982
RightForeArm  20.7145 35.1403 6.67844
RightHand  -1.81202 6.1009 -18.4656
LeftUpLeg  -22.4245 1.54975 1.46012
LeftLeg  13.5166 -2.98472 -0.502378
LeftFoot  6.32724 1.10943 -7.38072
LeftToes  -8.4584e-011 5.90861e-011 8.40072e-012
302
root  -3.83644 39.4293 -53.6555 0.73324 -3.35632 3.1602
RightUpLeg  5.88314 -6.87055 -0.898819
RightLeg  16.1398 -34.9567 -11.6787
RightFoot  -15.419 0.484558 16.4644
RightToes  -5.82094e-011 -1.98785e-016 -5.10186e-018
Spine  16.3862 2.77195 11.4812
Spine1  3.71712 7.20592 -12.8189
HEad  -9.36987 1.72084 -2.33774
LeftShoulder1  -0.229897 4.26399 -23.857
LeftArm  -23.0375 44.233 -45.5901
LeftForeArm  81.3702 -61.4632 -13.4312
LeftHand  1.18177 -2.97265 -16.1103
RightShoulder  3.065 6.70684 23.8812
RightArm  -4.66002 -6.1281 29.6344
RightForeArm  22.1165 38.106 7.41937
RightHand  -1.72024 6.10186 -17.561
LeftUpLeg  -22.7286 1.48864 1.52143
LeftLeg  12.131 -2.74448 -0.386537
LeftFoot  5.30499 1.13527 -7.9804
LeftToes  -8.4584e-011 5.90861e-011 8.40072e-012
303
root  -3.83533 39.3963 -53.3405 1.00899 -3.05381 3.31558
RightUpLeg  6.48869 -6.69732 -0.872058
RightLeg  15.3388 -35.5147 -11.5972
RightFoot  -15.4473 0.504747 16.9092
RightToes  -5.82094e-011 -1.98785e-016 -5.10186e-018
Spine  16.2346 3.21645 12.0014
Spine1  3.62695 7.91195 -13.6477
HEad  -9.95343 -0.8018 -1.45511
LeftShoulder1  -0.329765 4.58719 -24.1532
LeftArm  -24.8746 43.2042 -44.0103
LeftForeArm  82.6349 -61.3999 -13.3267
LeftHand  1.27109 -3.96094 -15.4136
RightShoulder  3.14811 7.1067 23.5054
RightArm  -5.27466 -5.52471 28.3986
RightForeArm  21.4729 40.4774 8.17009
RightHand  -1.72845 5.8234 -18.0586
LeftUpLeg  -22.6167 2.06258 1.28092
LeftLeg  9.8763 -0.403214 0.0986192
LeftFoot  3.82218 1.11471 -8.52668
LeftToes  -8.4584e-011 5.90861e-011 8.40072e-012
